/* XPM */
static char * dxcc_stat_xpm[] = {
"16 16 20 1",
" 	c None",
".	c #000000",
"+	c #FF00FF",
"@	c #400000",
"#	c #FF0000",
"$	c #550000",
"%	c #FFFF00",
"&	c #00FF00",
"*	c #0000FF",
"=	c #1C0000",
"-	c #004000",
";	c #005500",
">	c #002400",
",	c #550055",
"'	c #000024",
")	c #000055",
"!	c #000040",
"~	c #404000",
"{	c #555500",
"]	c #242400",
".               ",
".               ",
".               ",
".               ",
".     ++        ",
"@#    ++        ",
"$##   ++   %%   ",
"$##   ++   %%   ",
"$##   ++   %%   ",
"$##&& ++   %%   ",
"$##&& ++   %%   ",
"$##&& ++ * %%   ",
"$##&& ++ **%%   ",
"$##&& ++ **%%   ",
"$##&& ++ **%%   ",
"=$@-;>,,')!~{].."};
