/* XPM */
static char * edwn_xpm[] = {
"16 16 54 1",
" 	c None",
".	c #0B7FEB",
"+	c #3D8EC2",
"@	c #1D84D9",
"#	c #097EEC",
"$	c #0A7EEA",
"%	c #C1B34F",
"&	c #9AA76B",
"*	c #338AC4",
"=	c #F6C021",
"-	c #FBBD0B",
";	c #438DB4",
">	c #057DF0",
",	c #F4BB20",
"'	c #F8B506",
")	c #C5A833",
"!	c #0E7FE7",
"~	c #0B7FEA",
"{	c #F3B721",
"]	c #F2B110",
"^	c #FAAE00",
"/	c #969B63",
"(	c #F2AD16",
"_	c #F0A608",
":	c #FBA900",
"<	c #7D937A",
"[	c #0E7FE8",
"}	c #F0A411",
"|	c #EFA10A",
"1	c #F7A203",
"2	c #8E936C",
"3	c #0D7FE8",
"4	c #0A7FEB",
"5	c #0C80EC",
"6	c #EE9C0F",
"7	c #EE9A0D",
"8	c #EE9B0D",
"9	c #FE9C00",
"0	c #1D82DA",
"a	c #107FE5",
"b	c #EC920F",
"c	c #EC940F",
"d	c #ED950F",
"e	c #EB900F",
"f	c #EB8E10",
"g	c #EB8F10",
"h	c #E98912",
"i	c #EA8912",
"j	c #E98812",
"k	c #E88214",
"l	c #E98214",
"m	c #E88213",
"n	c #E77C15",
"o	c #E57C15",
"                ",
"         ...    ",
"       +@#.$..  ",
"      %&*   ..  ",
"     =-;>   .$. ",
"    ,')!~.$..$. ",
"   {]^/!.       ",
"   (_:<[.       ",
"   }|12345  .$  ",
"   67890a4....  ",
" bcdddc   55    ",
" efffffg        ",
"  hiiij         ",
"   klm          ",
"    no          ",
"                "};
