/* XPM */
static char * eupl_xpm[] = {
"16 16 58 1",
" 	c None",
".	c #F5BD02",
"+	c #F5BC03",
"@	c #F5B604",
"#	c #F5B704",
"$	c #F4B704",
"%	c #F4B605",
"&	c #F3B006",
"*	c #F3B106",
"=	c #F3AF06",
"-	c #F1AA08",
";	c #F2AB08",
">	c #F2AC08",
",	c #F2AB07",
"'	c #F0A709",
")	c #F0A609",
"!	c #F4A808",
"~	c #F8A802",
"{	c #0C80EC",
"]	c #F0A00A",
"^	c #F0A00B",
"/	c #F1A10A",
"(	c #1C81DB",
"_	c #0B7FEA",
":	c #0B7FEB",
"<	c #EE9C0C",
"[	c #EE9B0C",
"}	c #FB9C00",
"|	c #1280E6",
"1	c #0A7EEB",
"2	c #0A7EEA",
"3	c #EE990D",
"4	c #EC950F",
"5	c #F2960A",
"6	c #B59046",
"7	c #0F7FE6",
"8	c #0B7EEB",
"9	c #ED990D",
"0	c #EC910F",
"a	c #F18F0A",
"b	c #B18A49",
"c	c #107FE5",
"d	c #ED940D",
"e	c #ED8A0E",
"f	c #D38729",
"g	c #0B7EEA",
"h	c #EC910D",
"i	c #F2850A",
"j	c #2F7FC9",
"k	c #077EEE",
"l	c #EF8E0A",
"m	c #B0884B",
"n	c #2380D5",
"o	c #087FEE",
"p	c #807863",
"q	c #4677A4",
"r	c #067CEA",
"s	c #187BD8",
"                ",
"    .+          ",
"   @#$%         ",
"  &****=        ",
" -;>>>>,        ",
" ')))))!~  {    ",
"   ]^^/ (_::::  ",
"   <[[}|12:{:2: ",
"   34567:{  :82 ",
"   90abc::  :22 ",
"    defcg:::::: ",
"     hijk{      ",
"      lmno      ",
"       pqr:22:: ",
"        s2:::22 ",
"                "};
